<?xml version="1.0" encoding="iso-8859-1"?>
<!-- Generator: Adobe Illustrator 19.0.0, SVG Export Plug-In . SVG Version: 6.00 Build 0)  -->
<svg version="1.1" id="Layer_1" xmlns="http://www.w3.org/2000/svg" xmlns:xlink="http://www.w3.org/1999/xlink" x="0px" y="0px"
	 viewBox="0 0 512.001 512.001" style="enable-background:new 0 0 512.001 512.001;" xml:space="preserve">
<path style="fill:#CCD9CD;" d="M372.036,54.304c8.052,0,14.58-6.527,14.58-14.58V24.779c0-8.052-6.527-14.58-14.58-14.58H303.45
	c-8.052,0-14.58,6.527-14.58,14.58v14.946c0,8.052,6.527,14.58,14.58,14.58v88.209h68.586V54.304z"/>
<path style="fill:#FF5E8A;" d="M404.438,181.238h-32.402v-38.725H303.45v38.725h-32.402c-22.576,0-40.877,18.301-40.877,40.877
	v238.808c0,22.576,18.301,40.877,40.877,40.877h133.388c22.576,0,40.877-18.301,40.877-40.877V222.115
	C445.315,199.539,427.014,181.238,404.438,181.238z"/>
<rect x="230.176" y="271.595" style="fill:#EDDABF;" width="215.142" height="139.841"/>
<path style="fill:#CCD9CD;" d="M77.241,130.679h100.4l10.337,121.257c3.023,35.463-24.946,65.917-60.537,65.917l0,0
	c-35.591,0-63.56-30.455-60.537-65.917L77.241,130.679z"/>
<g>
	<path style="fill:#570029;" d="M293.251,171.039h-22.203c-28.163,0-51.077,22.913-51.077,51.077v238.809
		c0,28.163,22.914,51.077,51.077,51.077h133.388c28.163,0,51.077-22.913,51.077-51.077V222.115
		c0-28.163-22.914-51.077-51.077-51.077h-22.203V62.305c8.591-3.895,14.58-12.552,14.58-22.581V24.778
		C396.815,11.115,385.7,0,372.036,0H303.45c-13.663,0-24.779,11.115-24.779,24.778v14.946c0,10.029,5.989,18.686,14.58,22.581
		V171.039z M240.37,281.797h194.745v119.444H240.37V281.797z M299.07,24.778c0-2.415,1.965-4.38,4.381-4.38h68.586
		c2.415,0,4.381,1.964,4.381,4.38v14.946c0,2.415-1.965,4.38-4.381,4.38c-5.632,0-10.199,4.566-10.199,10.199v78.01H313.65V54.304
		c0-5.633-4.567-10.199-10.199-10.199c-2.415,0-4.381-1.964-4.381-4.38V24.778z M271.05,191.437h32.402
		c5.632,0,10.199-4.566,10.199-10.199v-28.527h48.187v28.527c0,5.633,4.567,10.199,10.199,10.199h32.402
		c16.916,0,30.678,13.762,30.678,30.678v39.284H240.37v-39.284C240.37,205.199,254.133,191.437,271.05,191.437z M404.438,491.602
		H271.05c-16.916,0-30.678-13.762-30.678-30.678v-39.284h194.745v39.284C435.116,477.84,421.354,491.602,404.438,491.602z"/>
	<path style="fill:#570029;" d="M385.075,329.128h5.378c5.632,0,10.199-4.566,10.199-10.199s-4.567-10.199-10.199-10.199h-5.378
		c-5.632,0-10.199,4.566-10.199,10.199S379.443,329.128,385.075,329.128z"/>
	<path style="fill:#570029;" d="M285.034,329.128h64.543c5.632,0,10.199-4.566,10.199-10.199s-4.567-10.199-10.199-10.199h-64.543
		c-5.632,0-10.199,4.566-10.199,10.199S279.401,329.128,285.034,329.128z"/>
	<path style="fill:#570029;" d="M390.454,351.758h-105.42c-5.632,0-10.199,4.566-10.199,10.199s4.567,10.199,10.199,10.199h105.42
		c5.632,0,10.199-4.566,10.199-10.199S396.086,351.758,390.454,351.758z"/>
	<path style="fill:#570029;" d="M179.701,305.093c13.402-14.592,20.122-34.283,18.439-54.023l-10.338-121.257
		c-0.45-5.278-4.866-9.332-10.162-9.332H77.241c-5.296,0-9.712,4.055-10.162,9.332L56.742,251.071
		c-1.682,19.74,5.037,39.43,18.439,54.022c10.955,11.929,25.687,19.693,41.523,22.131v161.151h-42.51
		c-5.632,0-10.199,4.566-10.199,10.199c0,5.633,4.567,10.199,10.199,10.199h105.419c5.632,0,10.199-4.566,10.199-10.199
		c0-5.633-4.567-10.199-10.199-10.199h-42.511V327.365C153.345,325.118,168.499,317.291,179.701,305.093z M90.204,291.294
		c-9.689-10.55-14.354-24.22-13.139-38.492l9.541-111.924h81.666l9.541,111.924c1.216,14.273-3.449,27.942-13.139,38.492
		c-9.688,10.55-22.914,16.361-37.237,16.361S99.893,301.844,90.204,291.294z"/>
</g>
<g>
</g>
<g>
</g>
<g>
</g>
<g>
</g>
<g>
</g>
<g>
</g>
<g>
</g>
<g>
</g>
<g>
</g>
<g>
</g>
<g>
</g>
<g>
</g>
<g>
</g>
<g>
</g>
<g>
</g>
</svg>
